<svg width="24" height="24" viewBox="0 0 24 24" fill="none" xmlns="http://www.w3.org/2000/svg">
<path fill-rule="evenodd" clip-rule="evenodd" d="M12 2C6.47733 2 2 6.47733 2 12C2 17.5227 6.47733 22 12 22C17.5227 22 22 17.5227 22 12C22 6.47733 17.5227 2 12 2ZM13.3609 10.5324C12.2276 9.39911 10.4413 7.70933 9.07111 6.42489C9.97411 5.94956 10.9795 5.70194 12 5.70356C15.4773 5.70356 18.2964 8.52267 18.2964 12C18.2964 13.0587 18.0351 14.0556 17.5742 14.9307C16.2556 13.5253 14.5067 11.6782 13.3609 10.5324ZM5.70356 12C5.70356 10.9422 5.96444 9.94622 6.42489 9.07111C7.70933 10.4413 9.39911 12.2276 10.5324 13.3609C11.6782 14.5067 13.5253 16.2556 14.9307 17.5742C14.0272 18.0501 13.0211 18.2981 12 18.2964C8.52267 18.2964 5.70356 15.4773 5.70356 12Z" fill="white"/>
</svg>
