<svg width="30" height="30" viewBox="0 0 30 30" fill="none" xmlns="http://www.w3.org/2000/svg">
<rect width="30" height="30" rx="15" fill="#F8F8F8"/>
<path d="M15 6.66699C13.4529 6.66699 11.9692 7.28157 10.8752 8.37554C9.78123 9.4695 9.16665 10.9532 9.16665 12.5003V15.4403C9.16677 15.5696 9.13681 15.6971 9.07915 15.8128L7.64832 18.6737C7.57842 18.8134 7.54542 18.9687 7.55244 19.1248C7.55946 19.281 7.60628 19.4327 7.68844 19.5656C7.7706 19.6985 7.88538 19.8083 8.02187 19.8843C8.15837 19.9604 8.31205 20.0003 8.46832 20.0003H21.5317C21.6879 20.0003 21.8416 19.9604 21.9781 19.8843C22.1146 19.8083 22.2294 19.6985 22.3115 19.5656C22.3937 19.4327 22.4405 19.281 22.4475 19.1248C22.4545 18.9687 22.4215 18.8134 22.3517 18.6737L20.9217 15.8128C20.8637 15.6972 20.8335 15.5697 20.8333 15.4403V12.5003C20.8333 10.9532 20.2187 9.4695 19.1248 8.37554C18.0308 7.28157 16.5471 6.66699 15 6.66699ZM15 22.5003C14.4828 22.5006 13.9782 22.3404 13.5558 22.0419C13.1335 21.7434 12.8141 21.3213 12.6416 20.8337H17.3583C17.1859 21.3213 16.8665 21.7434 16.4441 22.0419C16.0218 22.3404 15.5172 22.5006 15 22.5003Z" fill="#0073D7"/>
</svg>
