<svg width="24" height="24" viewBox="0 0 24 24" fill="none" xmlns="http://www.w3.org/2000/svg">
<path d="M9.25 13C9.25 14.105 8.355 15 7.25 15C6.145 15 5.25 14.105 5.25 13C5.25 11.895 6.145 11 7.25 11C8.355 11 9.25 11.895 9.25 13Z" fill="white"/>
<path fill-rule="evenodd" clip-rule="evenodd" d="M7.25 14C7.51522 14 7.76957 13.8946 7.95711 13.7071C8.14464 13.5196 8.25 13.2652 8.25 13C8.25 12.7348 8.14464 12.4804 7.95711 12.2929C7.76957 12.1054 7.51522 12 7.25 12C6.98478 12 6.73043 12.1054 6.54289 12.2929C6.35536 12.4804 6.25 12.7348 6.25 13C6.25 13.2652 6.35536 13.5196 6.54289 13.7071C6.73043 13.8946 6.98478 14 7.25 14ZM7.25 15C8.355 15 9.25 14.105 9.25 13C9.25 11.895 8.355 11 7.25 11C6.145 11 5.25 11.895 5.25 13C5.25 14.105 6.145 15 7.25 15Z" fill="white"/>
<path d="M3 18.273C3 16.761 5.8315 16 7.25 16C8.6685 16 11.5 16.7615 11.5 18.2725V21H3V18.273Z" fill="white"/>
<path fill-rule="evenodd" clip-rule="evenodd" d="M4.167 17.9915C4.009 18.1475 4 18.237 4 18.273V20H10.5V18.2725C10.5 18.2375 10.491 18.1475 10.333 17.9915C10.166 17.827 9.8905 17.6505 9.513 17.489C8.753 17.1635 7.825 17 7.25 17C6.675 17 5.7465 17.1635 4.987 17.489C4.6095 17.6505 4.334 17.827 4.167 17.9915ZM7.25 16C5.8315 16 3 16.7615 3 18.2725V21H11.5V18.2725C11.5 16.762 8.6685 16 7.25 16Z" fill="white"/>
<path d="M18.75 13C18.75 14.105 17.855 15 16.75 15C15.645 15 14.75 14.105 14.75 13C14.75 11.895 15.645 11 16.75 11C17.855 11 18.75 11.895 18.75 13Z" fill="white"/>
<path fill-rule="evenodd" clip-rule="evenodd" d="M16.75 14C17.0152 14 17.2696 13.8946 17.4571 13.7071C17.6446 13.5196 17.75 13.2652 17.75 13C17.75 12.7348 17.6446 12.4804 17.4571 12.2929C17.2696 12.1054 17.0152 12 16.75 12C16.4848 12 16.2304 12.1054 16.0429 12.2929C15.8554 12.4804 15.75 12.7348 15.75 13C15.75 13.2652 15.8554 13.5196 16.0429 13.7071C16.2304 13.8946 16.4848 14 16.75 14ZM16.75 15C17.855 15 18.75 14.105 18.75 13C18.75 11.895 17.855 11 16.75 11C15.645 11 14.75 11.895 14.75 13C14.75 14.105 15.645 15 16.75 15Z" fill="white"/>
<path d="M14 12C14 13.105 13.105 14 12 14C10.895 14 10 13.105 10 12C10 10.895 10.895 10 12 10C13.105 10 14 10.895 14 12Z" fill="white"/>
<path fill-rule="evenodd" clip-rule="evenodd" d="M12 13C12.2652 13 12.5196 12.8946 12.7071 12.7071C12.8946 12.5196 13 12.2652 13 12C13 11.7348 12.8946 11.4804 12.7071 11.2929C12.5196 11.1054 12.2652 11 12 11C11.7348 11 11.4804 11.1054 11.2929 11.2929C11.1054 11.4804 11 11.7348 11 12C11 12.2652 11.1054 12.5196 11.2929 12.7071C11.4804 12.8946 11.7348 13 12 13ZM12 14C13.105 14 14 13.105 14 12C14 10.895 13.105 10 12 10C10.895 10 10 10.895 10 12C10 13.105 10.895 14 12 14Z" fill="white"/>
<path d="M11.5001 6.4165C11.5001 5.7756 11.2455 5.16096 10.7923 4.70778C10.3392 4.25459 9.72451 4 9.08362 4H7.49912C6.84348 3.99894 6.2137 4.25559 5.74554 4.7146C5.27739 5.17361 5.00838 5.79821 4.9965 6.45374C4.98463 7.10927 5.23085 7.7432 5.68207 8.21887C6.13329 8.69453 6.75337 8.97381 7.40862 8.9965L7.50012 9V10C7.50012 10 11.5001 9.4165 11.5001 6.4165ZM13.0001 5.618C13.0001 4.92366 13.2759 4.25776 13.7669 3.76679C14.2579 3.27582 14.9238 3 15.6181 3H18.5001C19.1632 3 19.799 3.26339 20.2679 3.73223C20.7367 4.20107 21.0001 4.83696 21.0001 5.5C21.0001 6.16304 20.7367 6.79893 20.2679 7.26777C19.799 7.73661 19.1632 8 18.5001 8H17.5001V9.5C17.5001 9.5 13.0001 8.868 13.0001 5.618ZM12.5001 18.273C12.5001 16.761 15.3316 16 16.7501 16C18.1686 16 21.0001 16.7615 21.0001 18.2725V21H12.5001V18.273Z" fill="white"/>
<path fill-rule="evenodd" clip-rule="evenodd" d="M13.6671 17.9915C13.5091 18.1475 13.5001 18.237 13.5001 18.273V20H20.0001V18.2725C20.0001 18.2375 19.9911 18.1475 19.8331 17.9915C19.6661 17.827 19.3906 17.6505 19.0131 17.489C18.2531 17.1635 17.3251 17 16.7501 17C16.1751 17 15.2466 17.1635 14.4871 17.489C14.1096 17.6505 13.8341 17.827 13.6671 17.9915ZM16.7501 16C15.3316 16 12.5001 16.7615 12.5001 18.2725V21H21.0001V18.2725C21.0001 16.762 18.1686 16 16.7501 16ZM12.0001 17.2725C12.0001 16.434 11.0766 15.826 9.99756 15.451C10.6237 15.155 11.3075 15.001 12.0001 15C12.6926 15.001 13.3764 15.155 14.0026 15.451C12.9236 15.826 12.0001 16.434 12.0001 17.2725Z" fill="white"/>
<path fill-rule="evenodd" clip-rule="evenodd" d="M12.0001 17.2725C12.0001 16.826 12.2621 16.4445 12.6701 16.129L12.7406 16.0765C13.0891 15.8235 13.5306 15.615 14.0026 15.4515C13.5342 15.2307 13.0329 15.088 12.5186 15.029C12.174 14.9903 11.8261 14.9903 11.4816 15.029C10.9672 15.0879 10.4659 15.2304 9.99756 15.451C10.4691 15.615 10.9111 15.8235 11.2591 16.076C11.2831 16.0933 11.3066 16.111 11.3296 16.129C11.7381 16.444 12.0001 16.826 12.0001 17.2725Z" fill="white"/>
</svg>
